<?xml version="1.0" encoding="utf-8"?>
<!-- Generator: Adobe Illustrator 24.3.0, SVG Export Plug-In . SVG Version: 6.00 Build 0)  -->
<svg version="1.1" id="Layer_1" xmlns="http://www.w3.org/2000/svg" xmlns:xlink="http://www.w3.org/1999/xlink" x="0px" y="0px"
	 viewBox="0 0 88 36" style="enable-background:new 0 0 88 36;" xml:space="preserve">
<style type="text/css">
	.st0{enable-background:new    ;}
</style>
<g class="st0">
	<path d="M15.4,17.3V0H20l3.6,6.4c1,1.8,2.1,4,2.8,5.9h0.1c-0.3-2.3-0.3-4.6-0.3-7.2V0h3.6v17.3h-4.1L22,10.6c-1-1.9-2.2-4.1-3-6.1
		l-0.1,0C19,6.8,19,9.3,19,12.1v5.2H15.4z"/>
	<path d="M43.5,10h-6.4v4.1h7.1v3.2H33.2V0h10.7v3.2h-6.8v3.6h6.4V10z"/>
	<path d="M50.4,3.3h-4.7V0H59v3.3h-4.7v14h-3.9V3.3z"/>
</g>
<g class="st0">
	<path d="M14.8,21.8c0.6-0.1,2-0.2,3.2-0.2c1.5,0,2.4,0.1,3.2,0.6c0.8,0.4,1.3,1.2,1.3,2.1c0,1-0.6,1.9-1.8,2.3v0
		c1.3,0.3,2.2,1.3,2.2,2.7c0,1-0.5,1.8-1.1,2.3c-0.8,0.6-2.1,1-4.3,1c-1.2,0-2.1-0.1-2.7-0.2V21.8z M17.3,26h0.8c1.3,0,2-0.5,2-1.3
		c0-0.8-0.6-1.3-1.8-1.3c-0.5,0-0.8,0-1.1,0.1V26z M17.3,30.9c0.2,0,0.5,0,1,0c1.1,0,2.1-0.4,2.1-1.6c0-1.1-1-1.5-2.2-1.5h-0.8V30.9
		z"/>
	<path d="M29.1,32.6L29,31.8h0c-0.5,0.6-1.3,1-2.3,1c-1.6,0-2.6-1.2-2.6-2.4c0-2.1,1.9-3.1,4.7-3v-0.1c0-0.4-0.2-1-1.4-1
		c-0.8,0-1.7,0.3-2.2,0.6l-0.5-1.6c0.6-0.3,1.6-0.7,3.1-0.7c2.6,0,3.5,1.6,3.5,3.4v2.8c0,0.8,0,1.5,0.1,1.9H29.1z M28.8,28.9
		c-1.3,0-2.3,0.3-2.3,1.3c0,0.6,0.4,0.9,1,0.9c0.6,0,1.1-0.4,1.3-0.9c0-0.1,0-0.3,0-0.4V28.9z"/>
	<path d="M33.2,27.2c0-1,0-1.8-0.1-2.5h2.1l0.1,1.1h0c0.3-0.5,1.1-1.3,2.5-1.3c1.6,0,2.8,1.1,2.8,3.4v4.7h-2.5v-4.4
		c0-1-0.4-1.7-1.3-1.7c-0.7,0-1.1,0.5-1.3,0.9c-0.1,0.1-0.1,0.4-0.1,0.6v4.6h-2.5V27.2z"/>
	<path d="M45.1,28L45.1,28c0.2-0.3,0.4-0.6,0.6-1l1.6-2.4h3l-2.8,3.2l3.2,4.7h-3l-1.9-3.3l-0.6,0.8v2.5h-2.5V21.1h2.5V28z"/>
	<path d="M54.2,22.5c0,0.7-0.5,1.2-1.3,1.2c-0.8,0-1.3-0.6-1.3-1.2c0-0.7,0.5-1.2,1.3-1.2C53.7,21.2,54.2,21.7,54.2,22.5z
		 M51.6,32.6v-7.9h2.5v7.9H51.6z"/>
	<path d="M56.1,27.2c0-1,0-1.8-0.1-2.5h2.1l0.1,1.1h0c0.3-0.5,1.1-1.3,2.5-1.3c1.6,0,2.8,1.1,2.8,3.4v4.7h-2.5v-4.4
		c0-1-0.4-1.7-1.3-1.7c-0.7,0-1.1,0.5-1.3,0.9c-0.1,0.1-0.1,0.4-0.1,0.6v4.6h-2.5V27.2z"/>
	<path d="M73.2,24.7c0,0.5-0.1,1.2-0.1,2.4v4.4c0,1.5-0.3,2.8-1.2,3.6c-0.9,0.7-2.1,1-3.2,1c-1,0-2.1-0.2-2.9-0.6l0.5-1.9
		c0.5,0.3,1.4,0.6,2.3,0.6c1.2,0,2.1-0.6,2.1-2.1v-0.5h0c-0.5,0.7-1.2,1-2.1,1c-2,0-3.4-1.6-3.4-3.9c0-2.5,1.7-4.2,3.6-4.2
		c1.1,0,1.8,0.5,2.2,1.1h0l0.1-0.9H73.2z M70.7,27.9c0-0.2,0-0.3,0-0.5c-0.2-0.6-0.6-1.1-1.3-1.1c-0.9,0-1.6,0.8-1.6,2.3
		c0,1.2,0.6,2.1,1.6,2.1c0.6,0,1.1-0.4,1.3-1c0.1-0.2,0.1-0.4,0.1-0.6V27.9z"/>
</g>
</svg>
