<?xml version="1.0" encoding="utf-8"?>
<!-- Generator: Adobe Illustrator 24.3.0, SVG Export Plug-In . SVG Version: 6.00 Build 0)  -->
<svg version="1.1" id="Layer_1" xmlns="http://www.w3.org/2000/svg" xmlns:xlink="http://www.w3.org/1999/xlink" x="0px" y="0px"
	 viewBox="0 0 88 36" style="enable-background:new 0 0 88 36;" xml:space="preserve">
<style type="text/css">
	.st0{fill-rule:evenodd;clip-rule:evenodd;fill:#097939;}
	.st1{fill-rule:evenodd;clip-rule:evenodd;fill:#ED752E;}
	.st2{fill-rule:evenodd;clip-rule:evenodd;fill:#747474;}
</style>
<g>
	<path class="st0" d="M75.4,29.5l12.7-11.5l-6-11.9L75.4,29.5z"/>
	<path class="st1" d="M71.2,29.5l12.7-11.5l-6-11.9L71.2,29.5z"/>
	<path class="st2" d="M11,6.4L5.7,25.2l18.9,0.1l5.1-19h4.8l-6.2,22.1c-0.2,0.8-1.2,1.6-2,1.6H2.1c-1.4,0-2.4-1.2-1.9-2.5l6-21.1
		C6.2,6.4,11,6.4,11,6.4z M69.2,6.1H74l-6.7,23.8h-4.9L69.2,6.1z M35,16.2L58.8,16l1.6-5H36.1l1.4-4.7l25.9-0.2
		c1.6,0,2.6,1.2,2.1,2.7l-2.4,9c-0.5,1.6-2,2.9-3.7,2.9H38.2l-2.5,9.8H31L35,16.2z"/>
</g>
</svg>
