<?xml version="1.0" encoding="utf-8"?>
<!-- Generator: Adobe Illustrator 24.3.0, SVG Export Plug-In . SVG Version: 6.00 Build 0)  -->
<svg version="1.1" id="Layer_1" xmlns="http://www.w3.org/2000/svg" xmlns:xlink="http://www.w3.org/1999/xlink" x="0px" y="0px"
	 viewBox="0 0 88 36" style="enable-background:new 0 0 88 36;" xml:space="preserve">
<style type="text/css">
	.st0{fill:url(#SVGID_1_);}
</style>
<g>
	
		<linearGradient id="SVGID_1_" gradientUnits="userSpaceOnUse" x1="-1016.9005" y1="-70.2859" x2="-1016.87" y2="-69.935" gradientTransform="matrix(256 0 0 -82.6684 260366.6406 -5777.6372)">
		<stop  offset="0" style="stop-color:#222357"/>
		<stop  offset="1" style="stop-color:#254AA5"/>
	</linearGradient>
	<path class="st0" d="M45.5,12.9c0,4,3.6,6.1,6.3,7.5c2.7,1.3,3.7,2.3,3.7,3.4c0,1.8-2.3,2.7-4.3,2.7c-3.6,0-5.7-1-7.3-1.7l-1.3,6
		c1.7,0.7,4.7,1.4,8,1.4c7.5,0,12.4-3.7,12.4-9.4c0-7.3-10.1-7.7-10-10.9c0-1,1-2,3-2.3c1-0.1,3.8-0.3,7,1.3l1.3-5.8
		c-1.7-0.6-4-1.3-6.7-1.3C50.5,3.8,45.5,7.6,45.5,12.9 M76.2,4.4c-1.4,0-2.6,0.9-3,2L62.6,31.8h7.5l1.4-4.1h9.1l0.9,4.1H88L82.3,4.4
		H76.2 M77.2,11.7l2.1,10.4h-6L77.2,11.7 M36.4,4.4l-5.8,27.4h7.1l5.8-27.4H36.4 M25.9,4.4l-7.4,18.8l-3-15.9
		c-0.3-1.7-1.7-2.8-3.3-2.8H0.1L0,5.2c2.4,0.6,5.3,1.4,7,2.3c1,0.6,1.3,1,1.7,2.4l5.7,21.9h7.5L33.4,4.4H25.9"/>
</g>
</svg>
