<?xml version="1.0" encoding="utf-8"?>
<!-- Generator: Adobe Illustrator 24.3.0, SVG Export Plug-In . SVG Version: 6.00 Build 0)  -->
<svg version="1.1" id="Layer_1" xmlns="http://www.w3.org/2000/svg" xmlns:xlink="http://www.w3.org/1999/xlink" x="0px" y="0px"
	 viewBox="0 0 88 36" style="enable-background:new 0 0 88 36;" xml:space="preserve">
<style type="text/css">
	.st0{fill:#111111;}
	.st1{enable-background:new    ;}
</style>
<g id="Group_22" transform="translate(16.552 22.885)">
	<g id="wallet-90" transform="translate(0)">
		<path id="Path" class="st0" d="M14.3-3H8.1C6.6-2.9,5.4-1.6,5.5-0.1c0.1,1.4,1.2,2.5,2.6,2.6h6.2c0.4,0,0.7-0.3,0.7-0.7
			c0,0,0,0,0,0v-4.1C15-2.7,14.7-3,14.3-3C14.3-3,14.3-3,14.3-3z"/>
		<path id="Path-2" class="st0" d="M8.8-20.2h-19.2c-0.4,0-0.7,0.3-0.7,0.7c0,0,0,0,0,0v4.8c0,0.4,0.3,0.7,0.7,0.7c0,0,0,0,0,0H8.8
			c0.4,0,0.7-0.3,0.7-0.7c0,0,0,0,0,0v-4.8C9.5-19.9,9.2-20.2,8.8-20.2C8.8-20.2,8.8-20.2,8.8-20.2z"/>
		<path id="Path-3" class="st0" d="M12.2-12h-25.3c-1.1,0-2.1-0.9-2.1-2.1s0.9-2.1,2.1-2.1h0.7v-1.4h-0.7c-1.9,0-3.4,1.5-3.4,3.4
			V6.6c0,2.7,2.1,4.8,4.8,4.8h24c0.4,0,0.7-0.3,0.7-0.7c0,0,0,0,0,0V3.9H8.1C5.8,3.9,4,2,4-0.2s1.9-4.1,4.1-4.1h4.8v-6.9
			C12.9-11.7,12.6-12,12.2-12C12.2-12,12.2-12,12.2-12z"/>
	</g>
	<g class="st1">
		<path d="M29.4-2.2l1.3-6.7h1.9l-2.1,9.4h-2L27-5.8l-1.5,6.3h-2l-2.1-9.4h1.9l1.3,6.7l1.6-6.7h1.6L29.4-2.2z"/>
		<path d="M38.7-1.4h-3.4l-0.6,1.9h-2.1l3.5-9.4h1.8l3.5,9.4h-2.1L38.7-1.4z M35.9-3h2.4L37-6.5L35.9-3z"/>
		<path d="M44.3-1h4.1v1.6h-6.1v-9.4h1.9V-1z"/>
		<path d="M51.5-1h4.1v1.6h-6.1v-9.4h1.9V-1z"/>
		<path d="M62.4-3.6h-3.7V-1h4.4v1.6h-6.3v-9.4h6.3v1.6h-4.4v2.3h3.7V-3.6z"/>
		<path d="M71.4-7.3h-2.9v7.9h-1.9v-7.9h-2.9v-1.6h7.7V-7.3z"/>
	</g>
</g>
</svg>
