<?xml version="1.0" standalone="no"?>
<!DOCTYPE svg PUBLIC "-//W3C//DTD SVG 20010904//EN"
 "http://www.w3.org/TR/2001/REC-SVG-20010904/DTD/svg10.dtd">
<svg version="1.0" xmlns="http://www.w3.org/2000/svg"
 width="2299.000000pt" height="2299.000000pt" viewBox="0 0 2299.000000 2299.000000"
 preserveAspectRatio="xMidYMid meet">
<metadata>
Created by potrace 1.14, written by Peter Selinger 2001-2017
</metadata>
<g transform="translate(0.000000,2299.000000) scale(0.100000,-0.100000)"
fill="#000000" stroke="none">
<path d="M842 22933 c13 -86 59 -178 183 -368 61 -93 140 -215 175 -270 35
-55 116 -181 180 -280 65 -99 129 -200 143 -225 14 -25 66 -108 116 -185 228
-351 381 -593 397 -624 4 -7 17 -24 29 -37 12 -12 30 -40 41 -61 10 -21 22
-39 27 -41 4 -2 7 -8 7 -13 0 -8 98 -162 342 -539 55 -85 111 -175 125 -200
14 -25 62 -101 107 -170 129 -196 382 -591 569 -887 37 -60 146 -229 242 -378
96 -148 205 -318 242 -378 157 -249 436 -684 570 -889 57 -86 103 -160 103
-163 0 -5 123 -198 351 -550 61 -93 113 -177 116 -185 3 -8 46 -76 94 -150
163 -249 396 -613 587 -917 109 -172 308 -481 429 -666 57 -86 108 -167 113
-180 5 -12 51 -86 102 -164 51 -79 140 -216 197 -305 58 -90 151 -234 208
-320 57 -87 103 -160 103 -163 0 -6 97 -158 351 -550 60 -93 123 -195 140
-226 17 -31 50 -77 75 -103 24 -26 44 -51 44 -57 0 -5 4 -9 8 -9 5 0 19 -19
32 -42 13 -24 43 -72 66 -108 23 -36 58 -99 79 -140 39 -78 105 -261 105 -292
0 -10 4 -18 8 -18 15 0 32 -160 32 -301 0 -137 -11 -235 -32 -276 -6 -13 -8
-26 -5 -30 4 -3 3 -11 -2 -17 -5 -6 -19 -51 -30 -101 -33 -135 -255 -575 -292
-575 -5 0 -9 -7 -9 -15 0 -8 -4 -15 -10 -15 -5 0 -12 -11 -16 -25 -3 -14 -10
-25 -14 -25 -4 0 -10 -8 -13 -18 -3 -9 -69 -114 -146 -232 -248 -381 -331
-510 -331 -516 0 -3 -43 -71 -95 -150 -52 -79 -136 -208 -187 -287 -50 -78
-142 -220 -205 -315 -63 -96 -117 -181 -120 -190 -4 -9 -58 -96 -121 -192 -64
-96 -156 -238 -205 -315 -50 -77 -136 -210 -192 -295 -56 -85 -112 -173 -123
-195 -12 -22 -101 -163 -199 -312 -300 -460 -405 -622 -423 -656 -10 -17 -63
-102 -119 -187 -243 -373 -346 -535 -353 -551 -3 -9 -46 -77 -95 -150 -119
-179 -409 -628 -566 -877 -79 -125 -334 -518 -460 -710 -49 -74 -91 -142 -95
-152 -6 -16 -174 -275 -495 -766 -70 -107 -127 -198 -127 -202 0 -4 -52 -86
-115 -182 -261 -400 -375 -580 -375 -590 0 -5 -4 -10 -9 -10 -5 0 -12 -8 -16
-19 -3 -10 -17 -31 -30 -47 -14 -16 -31 -41 -38 -56 -6 -16 -15 -28 -19 -28
-5 0 -8 -4 -8 -10 0 -9 -131 -214 -367 -575 -57 -88 -108 -169 -112 -180 -5
-11 -53 -87 -108 -170 -54 -82 -155 -237 -223 -343 -69 -106 -162 -250 -208
-320 -46 -70 -86 -134 -89 -142 -4 -8 -72 -116 -153 -240 -207 -318 -226 -348
-265 -433 -19 -42 -35 -78 -35 -81 0 -3 1423 -6 3163 -6 l3162 0 15 23 c7 12
37 60 65 107 29 47 120 189 203 315 182 277 371 569 496 765 140 219 390 602
467 717 38 56 69 106 69 110 0 4 57 94 125 198 195 297 355 545 375 579 45 80
63 106 71 106 5 0 9 7 9 15 0 8 5 15 10 15 6 0 10 7 10 15 0 8 5 15 10 15 6 0
10 5 10 10 0 11 110 183 334 523 75 114 140 215 143 225 4 9 71 114 148 232
328 498 485 739 485 744 0 7 48 83 202 316 63 96 183 279 266 406 84 127 152
234 152 237 0 8 79 130 483 745 81 123 147 226 147 230 0 4 52 86 115 182 292
447 405 622 405 629 0 5 7 12 16 15 8 3 13 10 10 15 -4 5 -2 11 2 13 9 3 72
93 72 102 0 6 112 180 365 566 63 96 115 178 115 183 0 4 44 73 98 155 54 81
152 230 218 330 65 101 159 245 208 320 49 76 100 157 114 182 14 25 69 110
122 190 53 80 150 227 216 328 65 101 152 234 192 295 40 62 76 120 80 129 4
9 72 116 152 238 80 121 216 328 302 460 86 131 168 258 181 283 14 24 64 104
113 178 266 405 264 402 250 424 -7 11 -28 47 -46 80 -18 33 -74 123 -125 200
-50 77 -144 223 -208 325 -65 102 -149 235 -188 295 -39 61 -75 119 -80 130
-4 11 -48 82 -96 157 -48 75 -156 244 -240 375 -83 131 -177 276 -207 323 -31
47 -56 91 -56 97 0 7 -4 13 -10 13 -5 0 -10 4 -10 10 0 5 -52 92 -117 192
-298 467 -340 535 -355 563 -8 17 -64 107 -125 200 -209 325 -271 422 -524
828 -102 164 -316 499 -431 675 -51 79 -98 156 -105 170 -7 15 -57 97 -112
182 -148 231 -354 558 -385 613 -15 26 -31 47 -36 47 -6 0 -10 6 -10 13 0 7
-7 22 -15 32 -13 18 -117 181 -420 665 -57 91 -130 208 -163 260 -71 113 -343
539 -443 695 -39 61 -75 119 -80 130 -4 11 -49 83 -98 160 -209 324 -391 615
-391 625 0 5 -4 10 -10 10 -5 0 -10 6 -10 14 0 8 -6 16 -13 19 -7 2 -22 23
-32 46 -11 22 -23 41 -27 41 -5 0 -8 5 -8 10 0 10 -112 189 -350 560 -55 85
-100 161 -100 168 0 6 -4 12 -10 12 -5 0 -10 6 -10 14 0 8 -3 16 -7 18 -5 2
-17 19 -27 38 -11 19 -40 67 -66 105 -26 39 -115 178 -199 310 -83 132 -185
292 -226 355 -41 63 -75 118 -75 123 0 4 -46 78 -101 165 -56 86 -159 248
-230 359 -70 111 -161 253 -203 317 -42 64 -76 119 -76 122 0 4 -37 65 -81
135 l-81 129 -3273 0 -3272 0 9 -57z"/>
<path d="M15346 22955 c-77 -44 -163 -120 -217 -193 -78 -104 -83 -111 -114
-161 -16 -27 -52 -83 -80 -125 -88 -133 -215 -336 -215 -344 0 -8 -157 -257
-252 -400 -94 -141 -188 -295 -188 -309 0 -10 -67 -111 -92 -137 -9 -10 -15
-22 -13 -26 2 -4 -7 -18 -20 -30 -14 -13 -25 -27 -25 -31 0 -10 -173 -284
-315 -499 -56 -85 -114 -177 -130 -205 -16 -27 -72 -117 -125 -200 -54 -82
-154 -240 -224 -350 -69 -110 -160 -252 -201 -315 -41 -63 -75 -118 -75 -122
0 -5 -51 -86 -113 -180 -63 -95 -167 -258 -232 -363 -66 -104 -152 -238 -192
-296 -40 -59 -73 -110 -73 -114 0 -9 -271 -415 -349 -521 l-59 -81 62 -99 c34
-55 67 -111 73 -126 7 -16 17 -28 23 -28 6 0 9 -4 5 -9 -3 -6 0 -13 7 -18 15
-9 64 -83 78 -116 5 -12 67 -114 139 -227 257 -406 321 -508 321 -513 0 -3 27
-48 60 -99 33 -51 132 -208 221 -348 89 -140 192 -303 230 -362 37 -59 82
-132 99 -162 17 -31 57 -97 90 -148 206 -323 370 -588 370 -597 0 -6 5 -11 10
-11 6 0 10 -7 10 -15 0 -8 4 -15 9 -15 5 0 35 -44 67 -97 59 -102 176 -290
359 -578 59 -93 110 -176 114 -185 6 -17 29 -53 291 -465 88 -137 192 -303
232 -368 341 -553 509 -817 519 -817 5 0 9 5 9 11 0 6 61 104 136 217 74 114
212 323 305 466 94 142 179 274 190 295 19 36 199 312 468 719 79 119 146 225
148 235 3 9 9 17 14 17 5 0 9 5 9 10 0 6 39 71 88 144 48 74 141 217 206 318
66 100 164 250 218 331 54 82 103 158 108 170 7 18 171 271 495 763 28 41 88
137 135 212 47 75 135 211 195 302 182 276 275 420 275 426 0 12 113 179 126
187 8 4 14 13 14 19 0 12 57 101 306 479 89 135 171 263 182 285 12 21 90 145
176 274 330 502 406 618 458 705 30 50 127 200 216 335 330 503 409 625 415
640 3 8 99 158 214 332 114 175 231 352 258 394 28 42 73 113 102 158 78 122
269 418 403 624 66 101 120 187 120 193 0 5 4 9 9 9 5 0 11 10 15 23 3 12 14
32 24 43 25 26 92 122 92 131 0 7 68 113 295 458 84 127 163 251 178 277 14
26 53 88 86 139 34 50 61 93 61 95 0 2 -1524 4 -3387 3 l-3388 0 -59 -34z"/>
<path d="M15314 11153 c-26 -43 -107 -170 -178 -283 -153 -240 -149 -234 -176
-283 -11 -22 -58 -96 -103 -165 -84 -129 -297 -466 -418 -660 -196 -314 -272
-436 -389 -622 -71 -113 -144 -227 -162 -255 -18 -27 -32 -53 -30 -57 1 -5 -2
-8 -7 -8 -7 0 -81 -111 -81 -123 0 -2 -54 -89 -120 -193 -108 -171 -171 -272
-379 -606 -36 -58 -140 -223 -230 -365 -91 -142 -199 -314 -242 -383 -157
-253 -250 -401 -403 -642 -86 -136 -156 -250 -156 -253 0 -3 -9 -15 -20 -27
-10 -12 -17 -25 -14 -30 3 -4 1 -8 -5 -8 -11 0 -71 -94 -71 -111 0 -7 31 -48
69 -93 90 -105 261 -337 261 -353 0 -7 5 -13 10 -13 6 0 10 -6 10 -13 0 -8 9
-22 20 -32 11 -10 20 -24 20 -32 0 -7 7 -16 15 -19 8 -4 13 -10 10 -14 -2 -4
4 -15 15 -25 11 -10 20 -24 20 -32 0 -7 5 -13 10 -13 6 0 10 -5 10 -10 0 -6
100 -162 223 -348 122 -185 233 -355 246 -377 13 -22 45 -71 70 -109 25 -38
51 -76 56 -85 17 -26 39 -60 290 -442 132 -201 246 -374 253 -385 6 -10 15
-26 19 -34 3 -8 37 -60 74 -115 150 -223 539 -816 539 -822 0 -4 51 -84 114
-177 236 -355 523 -792 536 -816 7 -14 68 -108 135 -210 416 -630 495 -750
495 -756 0 -3 69 -110 154 -237 84 -128 179 -272 210 -321 31 -48 80 -113 108
-142 l51 -54 3138 0 c1727 0 3139 3 3139 6 0 11 -50 95 -165 275 -140 221
-319 504 -398 631 -31 51 -134 212 -227 358 -283 442 -301 471 -327 518 -14
26 -57 94 -94 152 -178 276 -369 580 -369 589 0 5 -4 11 -9 13 -10 4 -76 102
-113 169 -34 61 -107 177 -249 396 -65 100 -161 253 -214 340 -53 87 -170 273
-260 413 -285 444 -345 539 -345 549 0 5 -3 11 -7 13 -5 2 -17 19 -27 38 -11
19 -52 85 -91 145 -40 61 -137 214 -218 340 -80 127 -170 268 -201 315 -31 47
-56 88 -56 92 0 3 -47 80 -105 170 -245 381 -355 558 -355 568 0 5 -3 10 -7
10 -5 0 -17 19 -28 41 -10 23 -25 44 -32 46 -7 3 -13 11 -13 19 0 8 -4 14 -10
14 -5 0 -12 11 -16 25 -3 14 -10 25 -15 25 -5 0 -9 4 -9 9 0 6 -62 107 -137
226 -180 283 -323 509 -402 637 -34 57 -137 218 -227 358 -90 140 -201 315
-246 388 -111 178 -227 362 -397 629 -78 122 -141 227 -141 233 0 5 -4 10 -10
10 -5 0 -10 7 -10 15 0 7 -8 19 -17 24 -10 6 -14 11 -10 11 4 0 -1 10 -13 22
-11 12 -20 28 -20 35 0 7 -4 13 -8 13 -5 0 -17 18 -28 40 -10 22 -22 40 -26
40 -5 0 -8 6 -9 13 0 6 -48 87 -107 179 -218 340 -316 494 -340 538 -14 25
-62 101 -107 170 -44 69 -134 208 -199 310 -64 102 -150 237 -191 300 -41 63
-80 126 -87 140 -7 14 -53 88 -102 165 -49 77 -132 208 -184 290 -52 83 -98
154 -102 158 -4 5 -29 -27 -56 -70z"/>
</g>
</svg>
